<svg viewBox="0 0 220 50" xmlns="http://www.w3.org/2000/svg">
  <path d="m39 14 28 20q-28 20-56 0Z" fill="#E53935"/>
  <path d="m39 10 28 20q-28 20-56 0Z" fill="#EF5350"/>
  <path d="m39 6 28 20q-28 20-56 0Z" fill="#E57373"/>
  <path d="M193.96 37.84h-8.92v-1.2h8.84q3.6 0 6.38-1.6t4.34-4.38 1.56-6.38q0-3.56-1.56-6.34t-4.34-4.36-6.38-1.58h-8.68v-1.2h8.68q3 0 5.48 1t4.32 2.8 2.84 4.28 1 5.44q0 2.92-1 5.4t-2.82 4.3-4.3 2.82-5.44 1m-118.6 0H74L85 10.8h1.2l10.92 27.04h-1.4L85.28 11.92h.6zm25.6 0H99.6l11-27.04h1.2l10.92 27.04h-1.4l-10.44-25.92h.6zm56.6-16-.84.84q-1.08-1.16-2.6-1.82t-3.28-.66q-2.32 0-4.18 1.1t-2.94 2.98-1.08 4.28q0 2.44 1.08 4.36t2.94 3.04 4.18 1.12q1.8 0 3.34-.66t2.66-1.86l.84.84q-1.28 1.36-3.06 2.1t-3.78.74q-2.68 0-4.82-1.28t-3.4-3.48-1.26-4.92q0-2.68 1.26-4.84t3.4-3.42 4.82-1.26q2 0 3.74.74t2.98 2.06m20.28 16h-1.24v-11q0-3-1.72-4.84t-4.6-1.84q-1.96 0-3.46.86t-2.36 2.34-.86 3.44l-.84-.48q0-2.08 1.02-3.72t2.76-2.6 3.94-.96 3.86 1 2.58 2.76.92 4.04zm-14.24 0h-1.24V10h1.24zm22.28 0h-1.28V10.8h1.28zm-56.72 0h-1.24v-18.4h1.24zm0-11.24-.84-.24q0-3.52 1.86-5.42t4.66-1.9q1.36 0 2.54.48t2.18 1.52l-.84.92q-.84-.92-1.82-1.32t-2.26-.4q-2.44 0-3.96 1.66t-1.52 4.7m-36.6 2.32H78.6v-1.16h13.96zm25.6 0H104.2v-1.16h13.96z" fill="#fff"/>
</svg>
